<svg id="_2" data-name="2" xmlns="http://www.w3.org/2000/svg" viewBox="0 0 653.62 667.91"><defs><style>.cls-1{fill:#df4e8a;}.cls-2{fill:#fff;}.cls-3{fill:#565656;}</style></defs><ellipse class="cls-1" cx="326.81" cy="333.96" rx="326.81" ry="333.96"/><ellipse class="cls-2" cx="326.81" cy="330.82" rx="282.44" ry="288.62"/><path class="cls-3" d="M364.89,186.33a14.44,14.44,0,0,0-14.44,14.45V273H327.11V199.35a20,20,0,1,0-40,0V273H263.77V200.78a14.46,14.46,0,0,0-28.91,0V293h.27c2.2,16.84,19.17,32.88,44.17,39.79V585.3a27.79,27.79,0,0,0,55.57,0V332.13c21.72-6.19,42-19.31,44.23-39.12h.23V200.78A14.44,14.44,0,0,0,364.89,186.33Z" transform="translate(-73.19 -68.16)"/><path class="cls-3" d="M492,193.09c-16.12-5.47-40.48-8.75-40.48,16V589.51c0,20.37,11.65,29.11,26.21,29.11S504,609.88,504,592.4v-159h43.71c13.11,0,17.48-16,17.48-27.7V325.59C565.14,246.5,526.15,204.7,492,193.09Z" transform="translate(-73.19 -68.16)"/></svg>